<?xml version="1.0" encoding="UTF-8"?>
<svg xmlns="http://www.w3.org/2000/svg" xmlns:xlink="http://www.w3.org/1999/xlink" width="150px" height="150px" viewBox="0 0 150 150" version="1.1">
<defs>
<clipPath id="clip1">
  <path d="M 0 0 L 150 0 L 150 147.273438 L 0 147.273438 Z M 0 0 "/>
</clipPath>
</defs>
<g id="surface1">
<g clip-path="url(#clip1)" clip-rule="nonzero">
<path style=" stroke:none;fill-rule:evenodd;fill:rgb(21.960784%,74.117647%,97.254902%);fill-opacity:1;" d="M 75 0 C 55 0 42.5 16.363281 37.5 49.089844 C 45 32.726562 53.75 26.589844 63.75 30.683594 C 69.457031 33.011719 73.535156 39.789062 78.046875 47.285156 C 85.398438 59.5 93.910156 73.636719 112.5 73.636719 C 132.5 73.636719 145 57.273438 150 24.546875 C 142.5 40.910156 133.75 47.046875 123.75 42.953125 C 118.042969 40.621094 113.964844 33.84375 109.453125 26.351562 C 102.101562 14.136719 93.589844 0 75 0 Z M 37.5 73.636719 C 17.5 73.636719 5 90 0 122.726562 C 7.5 106.363281 16.25 100.226562 26.25 104.316406 C 31.957031 106.65625 36.035156 113.425781 40.546875 120.921875 C 47.898438 133.136719 56.410156 147.273438 75 147.273438 C 95 147.273438 107.5 130.910156 112.5 98.183594 C 105 114.546875 96.25 120.683594 86.25 116.589844 C 80.542969 114.257812 76.464844 107.480469 71.953125 99.988281 C 64.601562 87.773438 56.089844 73.636719 37.5 73.636719 Z M 37.5 73.636719 "/>
</g>
</g>
</svg>
